<svg width="24" height="24" viewBox="0 0 24 24" fill="none" xmlns="http://www.w3.org/2000/svg">
<rect width="23.9971" height="24" rx="5.94746" fill="#FEE600"/>
<path fill-rule="evenodd" clip-rule="evenodd" d="M11.999 13.5705L8.25449 17.4879L6.76879 15.9354L10.5137 12.0165L9.7325 11.1986V9.58361L9.18996 9.01534V10.4237L8.71773 10.9181L6.81922 8.93099L6.34961 9.42217C6.35298 9.05163 6.42366 7.97924 7.29296 7.08516C8.23105 6.14086 9.24414 6.56632 9.59058 6.92921L11.4882 8.9153L11.0041 9.42119L11.999 10.4626L12.9937 9.42119L12.5099 8.9153L14.4071 6.92921C14.7535 6.56632 15.7666 6.14086 16.7047 7.08516C17.5742 7.97924 17.6448 9.05163 17.6484 9.42217L17.1788 8.93099L15.2801 10.9181L14.8081 10.4237V9.01534L14.2651 9.58361V11.1986L13.484 12.0165L17.229 15.9354L15.7435 17.4879L11.999 13.5705Z" fill="#171717"/>
</svg>
