<svg width="24" height="24" viewBox="0 0 24 24" fill="none" xmlns="http://www.w3.org/2000/svg">
<g filter="url(#filter0_i_18_3648)">
<rect width="24" height="24" rx="6" fill="#030303"/>
</g>
<rect x="2.80859" y="2.77637" width="18.445" height="18.4472" rx="4.57143" fill="#FEE600"/>
<path fill-rule="evenodd" clip-rule="evenodd" d="M12.0318 13.2072L9.15361 16.2183L8.01165 15.0249L10.8901 12.0127L10.2897 11.384V10.1427L9.87265 9.70592V10.7885L9.50967 11.1684L8.05041 9.64109L7.68945 10.0186C7.69205 9.73382 7.74637 8.90954 8.41454 8.22232C9.1356 7.4965 9.91429 7.82352 10.1806 8.10245L11.6391 9.62903L11.2671 10.0179L12.0318 10.8183L12.7964 10.0179L12.4244 9.62903L13.8827 8.10245C14.149 7.82352 14.9277 7.4965 15.6487 8.22232C16.317 8.90954 16.3714 9.73382 16.3741 10.0186L16.0131 9.64109L14.5537 11.1684L14.1909 10.7885V9.70592L13.7736 10.1427V11.384L13.1732 12.0127L16.0518 15.0249L14.9099 16.2183L12.0318 13.2072Z" fill="#171717"/>
<defs>
<filter id="filter0_i_18_3648" x="0" y="0" width="24" height="24" filterUnits="userSpaceOnUse" color-interpolation-filters="sRGB">
<feFlood flood-opacity="0" result="BackgroundImageFix"/>
<feBlend mode="normal" in="SourceGraphic" in2="BackgroundImageFix" result="shape"/>
<feColorMatrix in="SourceAlpha" type="matrix" values="0 0 0 0 0 0 0 0 0 0 0 0 0 0 0 0 0 0 127 0" result="hardAlpha"/>
<feOffset/>
<feGaussianBlur stdDeviation="2.35009"/>
<feComposite in2="hardAlpha" operator="arithmetic" k2="-1" k3="1"/>
<feColorMatrix type="matrix" values="0 0 0 0 1 0 0 0 0 1 0 0 0 0 1 0 0 0 0.49 0"/>
<feBlend mode="normal" in2="shape" result="effect1_innerShadow_18_3648"/>
</filter>
</defs>
</svg>
